<svg xmlns="http://www.w3.org/2000/svg"
  viewBox="4.748882617665072 22.999999999999996 91.38704510153416 57.477000000000004"
  enable-background="new 0 0 100 100" xml:space="preserve" height="71.86501099569426" width="114.26363590802859">
  <path d="M37.994 71.428c0 0.829 0.675 1.505 1.505 1.505h4.486L61.13 58.026V47.605L37.994 67.719V71.428z"></path>
  <path d="M61.13 28.801c0-0.83-0.681-1.506-1.511-1.506h-1.531L37.994 44.768v9.572L61.13 34.226V28.801z"></path>
  <path d="M59.619 72.933c0.83 0 1.511-0.676 1.511-1.505v-2.267l-4.339 3.771H59.619z"></path>
  <polygon points="45.26,76.176 53.13,76.176 53.13,72.933 55.084,72.933 61.13,67.679 61.13,59.513 45.26,73.31">
  </polygon>
  <path d="M39.499 27.295c-0.831 0-1.505 0.676-1.505 1.506v3.062l5.254-4.568H39.499z"></path>
  <polygon
    points="53.13,27.295 53.13,23.824 45.26,23.824 45.26,27.295 44.953,27.295 37.994,33.346 37.994,43.282 56.381,27.295   ">
  </polygon>
  <path
    d="M76.944 27.388c-0.021-0.023-0.057-0.033-0.084-0.058-0.034-0.051-0.062-0.111-0.105-0.153-1.604-1.563-4.721 1.039-4.721 1.039l-0.719 0.512-1.254 1.092c-0.054 0.045-0.107 0.078-0.159 0.124-0.044 0.04-0.081 0.08-0.129 0.123l-2.355 2.052-6.288 6.035v-2.441L37.994 55.824v4.637L22.759 75.228l15.234-12.354v3.36L61.13 46.12v-1.983l10.394-8.406 0.91-0.862c0.346-0.261 0.697-0.542 1.039-0.842C76.377 31.485 77.931 28.514 76.944 27.388zM73.61 31.845c-1.396 1.221-2.879 1.812-3.314 1.315-0.43-0.495 0.347-1.884 1.747-3.107 1.394-1.223 2.877-1.81 3.312-1.316C75.785 29.231 75.008 30.624 73.61 31.845z">
  </path>
  <style>
    svg {
      background-color: white;
    }

    path,
    polygon {
      fill: black;
    }

    @media (prefers-color-scheme:dark) {
      svg {
        background-color: black;
      }

      path,
      polygon {
        fill: white;
      }
    }
  </style>
</svg>
