<svg xmlns="http://www.w3.org/2000/svg" version="1.1" xmlns:xlink="http://www.w3.org/1999/xlink"
  xmlns:svgjs="http://svgjs.dev/svgjs" width="1500" height="1500" viewBox="0 0 1500 1500">
  <g>
    <svg viewBox="0 0 232 247" data-background-color="#3a3836" preserveAspectRatio="xMidYMid meet" height="1596"
      width="1500" xmlns="http://www.w3.org/2000/svg" xmlns:xlink="http://www.w3.org/1999/xlink">
      <g id="tight-bounds" transform="matrix(1,0,0,1,0.13282627453116902,-0.09999999999999432)">
        <svg viewBox="0 0 231.73434745093766 247.2" height="247.2" width="231.73434745093766">
          <g>
            <svg viewBox="0 0 395.52 421.91649652065587" height="247.2" width="231.73434745093766">
              <g transform="matrix(1,0,0,1,87.67569006509147,0)">
                <svg viewBox="0 0 220.16861986981704 220.16861986981704" height="220.16861986981704"
                  width="220.16861986981704">
                  <g id="icon-0"><svg viewBox="0 0 220.16861986981704 220.16861986981704" height="220.16861986981704"
                      width="220.16861986981704">
                      <g>
                        <path
                          d="M0 110.084c0-60.798 49.286-110.084 110.084-110.084 60.798 0 110.084 49.286 110.085 110.084 0 60.798-49.286 110.084-110.085 110.085-60.798 0-110.084-49.286-110.084-110.085zM110.084 211.019c55.745 0 100.935-45.19 100.935-100.935 0-55.745-45.19-100.935-100.935-100.935-55.745 0-100.935 45.19-100.935 100.935 0 55.745 45.19 100.935 100.935 100.935z"
                          data-fill-palette-color="tertiary" fill="#ffffff" stroke="transparent"></path>
                      </g>
                      <g transform="matrix(1,0,0,1,52.95249198089422,74.15180443706139)"><svg
                          viewBox="0 0 114.26363590802859 71.86501099569426" height="71.86501099569426"
                          width="114.26363590802859">
                          <g>
                            <svg xmlns="http://www.w3.org/2000/svg" xmlns:xlink="http://www.w3.org/1999/xlink"
                              version="1.1" x="0" y="0"
                              viewBox="4.748882617665072 22.999999999999996 91.38704510153416 57.477000000000004"
                              enable-background="new 0 0 100 100" xml:space="preserve" height="71.86501099569426"
                              width="114.26363590802859" class="icon-cg-0" data-fill-palette-color="accent" id="cg-0">
                              <g  data-fill-palette-color="accent">
                                <g data-fill-palette-color="accent">
                                  <path fill="#ffffff"
                                    d="M37.994 71.428c0 0.829 0.675 1.505 1.505 1.505h4.486L61.13 58.026V47.605L37.994 67.719V71.428z"
                                    data-fill-palette-color="accent"></path>
                                  <path fill="#ffffff"
                                    d="M61.13 28.801c0-0.83-0.681-1.506-1.511-1.506h-1.531L37.994 44.768v9.572L61.13 34.226V28.801z"
                                    data-fill-palette-color="accent"></path>
                                  <path fill="#ffffff"
                                    d="M59.619 72.933c0.83 0 1.511-0.676 1.511-1.505v-2.267l-4.339 3.771H59.619z"
                                    data-fill-palette-color="accent"></path>
                                  <polygon fill="#ffffff"
                                    points="45.26,76.176 53.13,76.176 53.13,72.933 55.084,72.933 61.13,67.679 61.13,59.513 45.26,73.31       "
                                    data-fill-palette-color="accent"></polygon>
                                  <path fill="#ffffff"
                                    d="M39.499 27.295c-0.831 0-1.505 0.676-1.505 1.506v3.062l5.254-4.568H39.499z"
                                    data-fill-palette-color="accent"></path>
                                  <polygon fill="#ffffff"
                                    points="53.13,27.295 53.13,23.824 45.26,23.824 45.26,27.295 44.953,27.295 37.994,33.346 37.994,43.282     56.381,27.295   "
                                    data-fill-palette-color="accent"></polygon>
                                  <path fill="#ffffff"
                                    d="M76.944 27.388c-0.021-0.023-0.057-0.033-0.084-0.058-0.034-0.051-0.062-0.111-0.105-0.153-1.604-1.563-4.721 1.039-4.721 1.039l-0.719 0.512-1.254 1.092c-0.054 0.045-0.107 0.078-0.159 0.124-0.044 0.04-0.081 0.08-0.129 0.123l-2.355 2.052-6.288 6.035v-2.441L37.994 55.824v4.637L22.759 75.228l15.234-12.354v3.36L61.13 46.12v-1.983l10.394-8.406 0.91-0.862c0.346-0.261 0.697-0.542 1.039-0.842C76.377 31.485 77.931 28.514 76.944 27.388zM73.61 31.845c-1.396 1.221-2.879 1.812-3.314 1.315-0.43-0.495 0.347-1.884 1.747-3.107 1.394-1.223 2.877-1.81 3.312-1.316C75.785 29.231 75.008 30.624 73.61 31.845z"
                                    data-fill-palette-color="accent"></path>
                                </g>
                              </g>
                            </svg></g>
                        </svg></g>
                    </svg></g>
                </svg>
              </g>
              <g></g>
            </svg>
          </g>
        </svg>

      </g>
    </svg>
  </g>
</svg>
